<?xml version="1.0" encoding="UTF-8"?>
<svg id="Layer_1" xmlns="http://www.w3.org/2000/svg" version="1.1" viewBox="0 0 67 76">
  <!-- Generator: Adobe Illustrator 30.0.0, SVG Export Plug-In . SVG Version: 2.1.1 Build 123)  -->
  <defs>
    <style>
      .st0 {
        fill: #00a658;
      }

      .st1 {
        fill: #fff;
      }

      .st2 {
        fill: none;
        opacity: .93;
        stroke: #36338a;
        stroke-miterlimit: 10;
        stroke-width: .25px;
      }

      .st3 {
        fill: #de2a1b;
      }

      .st4 {
        fill: #3c2a98;
      }
    </style>
  </defs>
  <path class="st0" d="M50.17,34.05h11.03c1.16,3.26,1.79,6.76,1.79,10.42,0,3.89-.72,7.62-2.02,11.05h-11.16c1.98-3.21,3.13-7,3.13-11.05,0-3.8-1.01-7.35-2.76-10.42ZM10.77,44.48c0-3.8,1.01-7.35,2.76-10.42H2.5c-1.16,3.26-1.79,6.76-1.79,10.42,0,3.89.72,7.62,2.03,11.05h11.16c-1.98-3.21-3.13-7-3.13-11.05Z"/>
  <path class="st3" d="M31.85,75.62c13.3,0,24.65-8.35,29.11-20.09h-11.16c-3.71,6.02-10.36,10.03-17.95,10.03s-14.24-4.01-17.95-10.03H2.74c4.46,11.74,15.81,20.09,29.11,20.09Z"/>
  <path class="st1" d="M31.85,23.4c7.85,0,14.69,4.29,18.32,10.66h11.03c-4.29-12.07-15.8-20.72-29.34-20.72S6.79,21.98,2.5,34.05h11.03c3.63-6.37,10.47-10.66,18.32-10.66Z"/>
  <circle class="st2" cx="31.85" cy="44.48" r="31.14"/>
  <path class="st4" d="M14.49,43.56h7.94V0h-7.94v5.95h-6.55V0H0v33.43c1.58-5.08,4.34-9.64,7.97-13.35v-6.04h6.52v29.52ZM30.55,42.73l8.48,8.49h0c-1.76,2-4.34,3.27-7.21,3.27-4.91,0-8.82-3.68-9.39-8.44h-7.95c.39,9.27,7.97,16.67,17.34,16.67,8.13,0,14.94-5.48,16.86-13.01l-12.55-12.62-5.58,5.65ZM66.38,20.82h-8.88l-9.32,9.59V5.36h-7.94v14.96h-16.56s0,7.51,0,7.51h7.95s-7.96,8.05-7.96,8.05l4.52,4.51,12.04-12.21v9.76h0l25.64,25.87v-11.21l-14.9-15.01,15.39-16.75Z"/>
</svg>